<svg viewBox="0 0 1200 600" xmlns="http://www.w3.org/2000/svg">
  <defs>
    <linearGradient id="skyGradient" x1="0%" y1="0%" x2="0%" y2="100%">
      <stop offset="0%" style="stop-color:#87CEEB;stop-opacity:1" />
      <stop offset="100%" style="stop-color:#98FB98;stop-opacity:1" />
    </linearGradient>
    <linearGradient id="fieldGradient" x1="0%" y1="0%" x2="0%" y2="100%">
      <stop offset="0%" style="stop-color:#90EE90;stop-opacity:1" />
      <stop offset="100%" style="stop-color:#228B22;stop-opacity:1" />
    </linearGradient>
    <linearGradient id="tractorGradient" x1="0%" y1="0%" x2="100%" y2="0%">
      <stop offset="0%" style="stop-color:#FF6B35;stop-opacity:1" />
      <stop offset="100%" style="stop-color:#F7931E;stop-opacity:1" />
    </linearGradient>
  </defs>
  
  <!-- Sky Background -->
  <rect width="1200" height="400" fill="url(#skyGradient)"/>
  
  <!-- Mountains -->
  <polygon points="0,300 200,200 400,250 600,180 800,220 1000,160 1200,200 1200,400 0,400" fill="#8FBC8F" opacity="0.7"/>
  
  <!-- Fields -->
  <rect x="0" y="400" width="1200" height="200" fill="url(#fieldGradient)"/>
  
  <!-- Crop Rows -->
  <g stroke="#228B22" stroke-width="2" opacity="0.6">
    <line x1="0" y1="420" x2="1200" y2="420"/>
    <line x1="0" y1="440" x2="1200" y2="440"/>
    <line x1="0" y1="460" x2="1200" y2="460"/>
    <line x1="0" y1="480" x2="1200" y2="480"/>
    <line x1="0" y1="500" x2="1200" y2="500"/>
    <line x1="0" y1="520" x2="1200" y2="520"/>
    <line x1="0" y1="540" x2="1200" y2="540"/>
    <line x1="0" y1="560" x2="1200" y2="560"/>
  </g>
  
  <!-- Wheat Stalks -->
  <g fill="#DAA520">
    <ellipse cx="100" cy="410" rx="3" ry="15"/>
    <ellipse cx="120" cy="405" rx="3" ry="18"/>
    <ellipse cx="140" cy="408" rx="3" ry="16"/>
    <ellipse cx="300" cy="412" rx="3" ry="14"/>
    <ellipse cx="320" cy="407" rx="3" ry="17"/>
    <ellipse cx="340" cy="410" rx="3" ry="15"/>
    <ellipse cx="500" cy="409" rx="3" ry="16"/>
    <ellipse cx="520" cy="404" rx="3" ry="19"/>
    <ellipse cx="540" cy="411" rx="3" ry="14"/>
    <ellipse cx="700" cy="408" rx="3" ry="17"/>
    <ellipse cx="720" cy="413" rx="3" ry="13"/>
    <ellipse cx="740" cy="406" rx="3" ry="18"/>
    <ellipse cx="900" cy="410" rx="3" ry="15"/>
    <ellipse cx="920" cy="405" rx="3" ry="16"/>
    <ellipse cx="940" cy="409" rx="3" ry="17"/>
  </g>
  
  <!-- Tractor -->
  <g transform="translate(800, 450)">
    <!-- Tractor Body -->
    <rect x="0" y="0" width="80" height="40" rx="5" fill="url(#tractorGradient)"/>
    <!-- Cabin -->
    <rect x="50" y="-20" width="30" height="20" rx="3" fill="#4169E1"/>
    <!-- Front Wheel -->
    <circle cx="70" cy="45" r="12" fill="#2F4F4F"/>
    <circle cx="70" cy="45" r="8" fill="#696969"/>
    <!-- Rear Wheel -->
    <circle cx="15" cy="50" r="18" fill="#2F4F4F"/>
    <circle cx="15" cy="50" r="12" fill="#696969"/>
    <!-- Exhaust -->
    <rect x="10" y="-10" width="4" height="15" fill="#2F4F4F"/>
  </g>
  
  <!-- Clouds -->
  <g fill="white" opacity="0.8">
    <ellipse cx="200" cy="100" rx="40" ry="20"/>
    <ellipse cx="220" cy="90" rx="35" ry="18"/>
    <ellipse cx="180" cy="90" rx="30" ry="15"/>
    
    <ellipse cx="600" cy="80" rx="45" ry="22"/>
    <ellipse cx="625" cy="70" rx="38" ry="20"/>
    <ellipse cx="575" cy="70" rx="32" ry="16"/>
    
    <ellipse cx="1000" cy="120" rx="35" ry="18"/>
    <ellipse cx="1020" cy="110" rx="30" ry="15"/>
    <ellipse cx="980" cy="110" rx="28" ry="14"/>
  </g>
  
  <!-- Sun -->
  <circle cx="1050" cy="100" r="40" fill="#FFD700" opacity="0.9"/>
  <g stroke="#FFD700" stroke-width="3" opacity="0.7">
    <line x1="1050" y1="40" x2="1050" y2="20"/>
    <line x1="1050" y1="180" x2="1050" y2="160"/>
    <line x1="990" y1="100" x2="970" y2="100"/>
    <line x1="1130" y1="100" x2="1110" y2="100"/>
    <line x1="1007" y1="57" x2="993" y2="43"/>
    <line x1="1107" y1="143" x2="1093" y2="157"/>
    <line x1="1093" y1="57" x2="1107" y2="43"/>
    <line x1="993" y1="143" x2="1007" y2="157"/>
  </g>
  
  <!-- Birds -->
  <g stroke="#2F4F4F" stroke-width="2" fill="none">
    <path d="M 400 150 Q 405 145 410 150"/>
    <path d="M 415 148 Q 420 143 425 148"/>
    <path d="M 450 160 Q 455 155 460 160"/>
    <path d="M 465 158 Q 470 153 475 158"/>
  </g>
  
  <!-- Farm House -->
  <g transform="translate(50, 300)">
    <!-- House Base -->
    <rect x="0" y="0" width="60" height="40" fill="#8B4513"/>
    <!-- Roof -->
    <polygon points="0,0 30,-20 60,0" fill="#A0522D"/>
    <!-- Door -->
    <rect x="25" y="20" width="10" height="20" fill="#654321"/>
    <!-- Windows -->
    <rect x="10" y="10" width="8" height="8" fill="#87CEEB"/>
    <rect x="42" y="10" width="8" height="8" fill="#87CEEB"/>
    <!-- Chimney -->
    <rect x="45" y="-15" width="6" height="15" fill="#8B4513"/>
  </g>
  
  <!-- Trees -->
  <g transform="translate(150, 320)">
    <!-- Tree Trunk -->
    <rect x="0" y="0" width="8" height="30" fill="#8B4513"/>
    <!-- Tree Crown -->
    <circle cx="4" cy="-10" r="20" fill="#228B22"/>
  </g>
  
  <g transform="translate(950, 310)">
    <!-- Tree Trunk -->
    <rect x="0" y="0" width="10" height="35" fill="#8B4513"/>
    <!-- Tree Crown -->
    <circle cx="5" cy="-15" r="25" fill="#32CD32"/>
  </g>
  
  <!-- Technology Elements -->
  <g transform="translate(400, 200)">
    <!-- Drone -->
    <ellipse cx="0" cy="0" rx="15" ry="8" fill="#4169E1"/>
    <circle cx="-10" cy="-5" r="3" fill="#2F4F4F"/>
    <circle cx="10" cy="-5" r="3" fill="#2F4F4F"/>
    <circle cx="-10" cy="5" r="3" fill="#2F4F4F"/>
    <circle cx="10" cy="5" r="3" fill="#2F4F4F"/>
  </g>
  
  <!-- Sensor Tower -->
  <g transform="translate(700, 350)">
    <rect x="0" y="0" width="4" height="50" fill="#2F4F4F"/>
    <circle cx="2" cy="-5" r="8" fill="#4169E1"/>
    <rect x="-3" y="-8" width="10" height="2" fill="#FFD700"/>
  </g>
</svg>