<svg viewBox="0 0 400 300" xmlns="http://www.w3.org/2000/svg">
  <defs>
    <linearGradient id="weatherBg" x1="0%" y1="0%" x2="0%" y2="100%">
      <stop offset="0%" style="stop-color:#E3F2FD;stop-opacity:0.3" />
      <stop offset="100%" style="stop-color:#BBDEFB;stop-opacity:0.1" />
    </linearGradient>
    <radialGradient id="sunGlow" cx="50%" cy="50%" r="50%">
      <stop offset="0%" style="stop-color:#FFD54F;stop-opacity:0.4" />
      <stop offset="100%" style="stop-color:#FFD54F;stop-opacity:0" />
    </radialGradient>
  </defs>
  
  <!-- Background -->
  <rect width="400" height="300" fill="url(#weatherBg)"/>
  
  <!-- Sun Glow -->
  <circle cx="320" cy="80" r="60" fill="url(#sunGlow)"/>
  
  <!-- Subtle Clouds -->
  <g fill="white" opacity="0.2">
    <ellipse cx="80" cy="60" rx="25" ry="12"/>
    <ellipse cx="95" cy="55" rx="20" ry="10"/>
    <ellipse cx="65" cy="55" rx="18" ry="9"/>
    
    <ellipse cx="250" cy="40" rx="30" ry="15"/>
    <ellipse cx="270" cy="35" rx="25" ry="12"/>
    <ellipse cx="230" cy="35" rx="22" ry="11"/>
    
    <ellipse cx="150" cy="200" rx="35" ry="18"/>
    <ellipse cx="175" cy="195" rx="28" ry="14"/>
    <ellipse cx="125" cy="195" rx="25" ry="12"/>
  </g>
  
  <!-- Weather Pattern Lines -->
  <g stroke="#81C784" stroke-width="1" opacity="0.1" fill="none">
    <path d="M 0 100 Q 100 80 200 100 T 400 100"/>
    <path d="M 0 150 Q 150 130 300 150 T 400 150"/>
    <path d="M 0 200 Q 100 180 200 200 T 400 200"/>
  </g>
  
  <!-- Subtle Rain Drops -->
  <g fill="#42A5F5" opacity="0.1">
    <ellipse cx="120" cy="120" rx="1.5" ry="4"/>
    <ellipse cx="180" cy="140" rx="1.5" ry="4"/>
    <ellipse cx="220" cy="110" rx="1.5" ry="4"/>
    <ellipse cx="280" cy="160" rx="1.5" ry="4"/>
    <ellipse cx="340" cy="130" rx="1.5" ry="4"/>
  </g>
  
  <!-- Wind Swirls -->
  <g stroke="#90A4AE" stroke-width="1" opacity="0.08" fill="none">
    <path d="M 50 250 Q 70 240 90 250 Q 110 260 130 250"/>
    <path d="M 200 270 Q 220 260 240 270 Q 260 280 280 270"/>
    <path d="M 300 240 Q 320 230 340 240 Q 360 250 380 240"/>
  </g>
  
  <!-- Temperature Gradient Bars -->
  <g opacity="0.05">
    <rect x="20" y="20" width="2" height="260" fill="url(#weatherBg)"/>
    <rect x="30" y="30" width="2" height="240" fill="url(#weatherBg)"/>
    <rect x="40" y="25" width="2" height="250" fill="url(#weatherBg)"/>
    <rect x="350" y="25" width="2" height="250" fill="url(#weatherBg)"/>
    <rect x="360" y="30" width="2" height="240" fill="url(#weatherBg)"/>
    <rect x="370" y="20" width="2" height="260" fill="url(#weatherBg)"/>
  </g>
</svg>