<svg xmlns="http://www.w3.org/2000/svg" viewBox="0 0 32 32" width="32" height="32">
  <defs>
    <linearGradient id="leafGradient" x1="0%" y1="0%" x2="100%" y2="100%">
      <stop offset="0%" style="stop-color:#4ade80;stop-opacity:1" />
      <stop offset="100%" style="stop-color:#16a34a;stop-opacity:1" />
    </linearGradient>
    <linearGradient id="seedGradient" x1="0%" y1="0%" x2="100%" y2="100%">
      <stop offset="0%" style="stop-color:#fbbf24;stop-opacity:1" />
      <stop offset="100%" style="stop-color:#f59e0b;stop-opacity:1" />
    </linearGradient>
  </defs>
  
  <!-- Background circle -->
  <circle cx="16" cy="16" r="15" fill="#ffffff" stroke="#e5e7eb" stroke-width="1"/>
  
  <!-- Main leaf shape -->
  <path d="M8 20 Q12 8 20 12 Q24 16 20 24 Q16 28 8 24 Q4 20 8 20 Z" fill="url(#leafGradient)"/>
  
  <!-- Leaf vein -->
  <path d="M10 22 Q14 14 18 16 Q20 18 18 22" fill="none" stroke="#16a34a" stroke-width="1" opacity="0.6"/>
  
  <!-- Seeds/grain elements -->
  <circle cx="14" cy="18" r="2" fill="url(#seedGradient)"/>
  <circle cx="18" cy="20" r="1.5" fill="url(#seedGradient)"/>
  <circle cx="16" cy="15" r="1" fill="url(#seedGradient)"/>
  
  <!-- Small growth sprout -->
  <path d="M22 10 Q24 8 26 10 Q24 12 22 10" fill="#4ade80"/>
  <line x1="24" y1="10" x2="24" y2="14" stroke="#16a34a" stroke-width="1"/>
</svg>